<svg width="160" height="128" viewBox="0 0 160 128" fill="none" xmlns="http://www.w3.org/2000/svg">
<rect width="160" height="128" rx="15" fill="#EDEDED"/>
<g clip-path="url(#clip0_2_579)">
<path d="M96 32H64C62.8954 32 62 32.8954 62 34V54C62 55.1046 62.8954 56 64 56H96C97.1046 56 98 55.1046 98 54V34C98 32.8954 97.1046 32 96 32Z" stroke="black" stroke-width="2" stroke-linecap="round" stroke-linejoin="round"/>
<path d="M70 64H90" stroke="black" stroke-width="2" stroke-linecap="round" stroke-linejoin="round"/>
<path d="M74 56V64" stroke="black" stroke-width="2" stroke-linecap="round" stroke-linejoin="round"/>
<path d="M86 56V64" stroke="black" stroke-width="2" stroke-linecap="round" stroke-linejoin="round"/>
<path d="M62.8571 51.4286H97.1428" stroke="black" stroke-width="2" stroke-linecap="round"/>
</g>
<path d="M41.3364 98.128C40.4831 98.128 39.6938 97.9893 38.9684 97.712C38.2538 97.424 37.6298 97.024 37.0964 96.512C36.5738 95.9893 36.1631 95.3813 35.8644 94.688C35.5658 93.9947 35.4164 93.232 35.4164 92.4C35.4164 91.568 35.5658 90.8053 35.8644 90.112C36.1631 89.4187 36.5791 88.816 37.1124 88.304C37.6458 87.7813 38.2698 87.3813 38.9844 87.104C39.7098 86.816 40.4991 86.672 41.3524 86.672C42.2164 86.672 43.0111 86.8213 43.7364 87.12C44.4724 87.408 45.0964 87.84 45.6084 88.416L44.5684 89.424C44.1418 88.976 43.6618 88.6453 43.1284 88.432C42.5951 88.208 42.0244 88.096 41.4164 88.096C40.7871 88.096 40.2004 88.2027 39.6564 88.416C39.1231 88.6293 38.6591 88.928 38.2644 89.312C37.8698 89.696 37.5604 90.1547 37.3364 90.688C37.1231 91.2107 37.0164 91.7813 37.0164 92.4C37.0164 93.0187 37.1231 93.5947 37.3364 94.128C37.5604 94.6507 37.8698 95.104 38.2644 95.488C38.6591 95.872 39.1231 96.1707 39.6564 96.384C40.2004 96.5973 40.7871 96.704 41.4164 96.704C42.0244 96.704 42.5951 96.5973 43.1284 96.384C43.6618 96.16 44.1418 95.8187 44.5684 95.36L45.6084 96.368C45.0964 96.944 44.4724 97.3813 43.7364 97.68C43.0111 97.9787 42.2111 98.128 41.3364 98.128ZM50.9396 98.096C50.0862 98.096 49.3289 97.9093 48.6676 97.536C48.0062 97.1627 47.4836 96.6507 47.0996 96C46.7156 95.3387 46.5236 94.592 46.5236 93.76C46.5236 92.9173 46.7156 92.1707 47.0996 91.52C47.4836 90.8693 48.0062 90.3627 48.6676 90C49.3289 89.6267 50.0862 89.44 50.9396 89.44C51.7822 89.44 52.5342 89.6267 53.1956 90C53.8676 90.3627 54.3902 90.8693 54.7636 91.52C55.1476 92.16 55.3396 92.9067 55.3396 93.76C55.3396 94.6027 55.1476 95.3493 54.7636 96C54.3902 96.6507 53.8676 97.1627 53.1956 97.536C52.5342 97.9093 51.7822 98.096 50.9396 98.096ZM50.9396 96.752C51.4836 96.752 51.9689 96.6293 52.3956 96.384C52.8329 96.1387 53.1742 95.792 53.4196 95.344C53.6649 94.8853 53.7876 94.3573 53.7876 93.76C53.7876 93.152 53.6649 92.6293 53.4196 92.192C53.1742 91.744 52.8329 91.3973 52.3956 91.152C51.9689 90.9067 51.4836 90.784 50.9396 90.784C50.3956 90.784 49.9102 90.9067 49.4836 91.152C49.0569 91.3973 48.7156 91.744 48.4596 92.192C48.2036 92.6293 48.0756 93.152 48.0756 93.76C48.0756 94.3573 48.2036 94.8853 48.4596 95.344C48.7156 95.792 49.0569 96.1387 49.4836 96.384C49.9102 96.6293 50.3956 96.752 50.9396 96.752ZM68.0718 89.44C68.7545 89.44 69.3571 89.5733 69.8798 89.84C70.4025 90.1067 70.8078 90.512 71.0958 91.056C71.3945 91.6 71.5438 92.288 71.5438 93.12V98H70.0078V93.296C70.0078 92.4747 69.8158 91.856 69.4318 91.44C69.0478 91.024 68.5091 90.816 67.8158 90.816C67.3038 90.816 66.8558 90.9227 66.4718 91.136C66.0878 91.3493 65.7891 91.664 65.5758 92.08C65.3731 92.496 65.2718 93.0133 65.2718 93.632V98H63.7358V93.296C63.7358 92.4747 63.5438 91.856 63.1598 91.44C62.7865 91.024 62.2478 90.816 61.5438 90.816C61.0425 90.816 60.5998 90.9227 60.2158 91.136C59.8318 91.3493 59.5331 91.664 59.3198 92.08C59.1065 92.496 58.9998 93.0133 58.9998 93.632V98H57.4638V89.52H58.9358V91.776L58.6958 91.2C58.9625 90.6453 59.3731 90.2133 59.9278 89.904C60.4825 89.5947 61.1278 89.44 61.8638 89.44C62.6745 89.44 63.3731 89.6427 63.9598 90.048C64.5465 90.4427 64.9305 91.0453 65.1118 91.856L64.4878 91.6C64.7438 90.9493 65.1918 90.4267 65.8318 90.032C66.4718 89.6373 67.2185 89.44 68.0718 89.44ZM78.8661 98.096C78.1621 98.096 77.5167 97.936 76.9301 97.616C76.3541 97.2853 75.8901 96.8 75.5381 96.16C75.1967 95.52 75.0261 94.72 75.0261 93.76C75.0261 92.8 75.1914 92 75.5221 91.36C75.8634 90.72 76.3221 90.24 76.8981 89.92C77.4847 89.6 78.1407 89.44 78.8661 89.44C79.6981 89.44 80.4341 89.6213 81.0741 89.984C81.7141 90.3467 82.2207 90.8533 82.5941 91.504C82.9674 92.144 83.1541 92.896 83.1541 93.76C83.1541 94.624 82.9674 95.3813 82.5941 96.032C82.2207 96.6827 81.7141 97.1893 81.0741 97.552C80.4341 97.9147 79.6981 98.096 78.8661 98.096ZM74.3701 101.104V89.52H75.8421V91.808L75.7461 93.776L75.9061 95.744V101.104H74.3701ZM78.7381 96.752C79.2821 96.752 79.7674 96.6293 80.1941 96.384C80.6314 96.1387 80.9727 95.792 81.2181 95.344C81.4741 94.8853 81.6021 94.3573 81.6021 93.76C81.6021 93.152 81.4741 92.6293 81.2181 92.192C80.9727 91.744 80.6314 91.3973 80.1941 91.152C79.7674 90.9067 79.2821 90.784 78.7381 90.784C78.2047 90.784 77.7194 90.9067 77.2821 91.152C76.8554 91.3973 76.5141 91.744 76.2581 92.192C76.0127 92.6293 75.8901 93.152 75.8901 93.76C75.8901 94.3573 76.0127 94.8853 76.2581 95.344C76.5141 95.792 76.8554 96.1387 77.2821 96.384C77.7194 96.6293 78.2047 96.752 78.7381 96.752ZM88.8443 98.096C88.119 98.096 87.479 97.9627 86.9243 97.696C86.3803 97.4293 85.9536 97.024 85.6443 96.48C85.3456 95.9253 85.1963 95.232 85.1963 94.4V89.52H86.7323V94.224C86.7323 95.056 86.9296 95.68 87.3243 96.096C87.7296 96.512 88.295 96.72 89.0203 96.72C89.5536 96.72 90.0176 96.6133 90.4123 96.4C90.807 96.176 91.111 95.856 91.3243 95.44C91.5376 95.0133 91.6443 94.5013 91.6443 93.904V89.52H93.1803V98H91.7243V95.712L91.9643 96.32C91.687 96.8853 91.271 97.3227 90.7163 97.632C90.1616 97.9413 89.5376 98.096 88.8443 98.096ZM99.0164 98.096C98.1631 98.096 97.5018 97.8667 97.0324 97.408C96.5631 96.9493 96.3284 96.2933 96.3284 95.44V87.664H97.8644V95.376C97.8644 95.8347 97.9764 96.1867 98.2004 96.432C98.4351 96.6773 98.7658 96.8 99.1924 96.8C99.6724 96.8 100.072 96.6667 100.392 96.4L100.872 97.504C100.638 97.7067 100.355 97.856 100.024 97.952C99.7044 98.048 99.3684 98.096 99.0164 98.096ZM94.8884 90.784V89.52H100.296V90.784H94.8884ZM106.224 98.096C105.318 98.096 104.518 97.9093 103.824 97.536C103.142 97.1627 102.608 96.6507 102.224 96C101.851 95.3493 101.664 94.6027 101.664 93.76C101.664 92.9173 101.846 92.1707 102.208 91.52C102.582 90.8693 103.088 90.3627 103.728 90C104.379 89.6267 105.11 89.44 105.92 89.44C106.742 89.44 107.467 89.6213 108.096 89.984C108.726 90.3467 109.216 90.8587 109.568 91.52C109.931 92.1707 110.112 92.9333 110.112 93.808C110.112 93.872 110.107 93.9467 110.096 94.032C110.096 94.1173 110.091 94.1973 110.08 94.272H102.864V93.168H109.28L108.656 93.552C108.667 93.008 108.555 92.5227 108.32 92.096C108.086 91.6693 107.76 91.3387 107.344 91.104C106.939 90.8587 106.464 90.736 105.92 90.736C105.387 90.736 104.912 90.8587 104.496 91.104C104.08 91.3387 103.755 91.6747 103.52 92.112C103.286 92.5387 103.168 93.0293 103.168 93.584V93.84C103.168 94.4053 103.296 94.912 103.552 95.36C103.819 95.7973 104.187 96.1387 104.656 96.384C105.126 96.6293 105.664 96.752 106.272 96.752C106.774 96.752 107.227 96.6667 107.632 96.496C108.048 96.3253 108.411 96.0693 108.72 95.728L109.568 96.72C109.184 97.168 108.704 97.5093 108.128 97.744C107.563 97.9787 106.928 98.096 106.224 98.096ZM112.245 98V89.52H113.717V91.824L113.573 91.248C113.808 90.6613 114.202 90.2133 114.757 89.904C115.312 89.5947 115.994 89.44 116.805 89.44V90.928C116.741 90.9173 116.677 90.912 116.613 90.912C116.56 90.912 116.506 90.912 116.453 90.912C115.632 90.912 114.981 91.1573 114.501 91.648C114.021 92.1387 113.781 92.848 113.781 93.776V98H112.245ZM121.224 98.096C120.52 98.096 119.848 98 119.208 97.808C118.579 97.616 118.083 97.3813 117.72 97.104L118.36 95.888C118.723 96.1333 119.171 96.3413 119.704 96.512C120.237 96.6827 120.781 96.768 121.336 96.768C122.051 96.768 122.563 96.6667 122.872 96.464C123.192 96.2613 123.352 95.9787 123.352 95.616C123.352 95.3493 123.256 95.1413 123.064 94.992C122.872 94.8427 122.616 94.7307 122.296 94.656C121.987 94.5813 121.64 94.5173 121.256 94.464C120.872 94.4 120.488 94.3253 120.104 94.24C119.72 94.144 119.368 94.016 119.048 93.856C118.728 93.6853 118.472 93.456 118.28 93.168C118.088 92.8693 117.992 92.4747 117.992 91.984C117.992 91.472 118.136 91.024 118.424 90.64C118.712 90.256 119.117 89.9627 119.64 89.76C120.173 89.5467 120.803 89.44 121.528 89.44C122.083 89.44 122.643 89.5093 123.208 89.648C123.784 89.776 124.253 89.9627 124.616 90.208L123.96 91.424C123.576 91.168 123.176 90.992 122.76 90.896C122.344 90.8 121.928 90.752 121.512 90.752C120.84 90.752 120.339 90.864 120.008 91.088C119.677 91.3013 119.512 91.5787 119.512 91.92C119.512 92.208 119.608 92.432 119.8 92.592C120.003 92.7413 120.259 92.8587 120.568 92.944C120.888 93.0293 121.24 93.104 121.624 93.168C122.008 93.2213 122.392 93.296 122.776 93.392C123.16 93.4773 123.507 93.6 123.816 93.76C124.136 93.92 124.392 94.144 124.584 94.432C124.787 94.72 124.888 95.104 124.888 95.584C124.888 96.096 124.739 96.5387 124.44 96.912C124.141 97.2853 123.72 97.5787 123.176 97.792C122.632 97.9947 121.981 98.096 121.224 98.096Z" fill="black"/>
<defs>
<clipPath id="clip0_2_579">
<rect width="48" height="48" fill="white" transform="translate(56 24)"/>
</clipPath>
</defs>
</svg>
