<svg width="160" height="128" viewBox="0 0 160 128" fill="none" xmlns="http://www.w3.org/2000/svg">
<rect width="160" height="128" rx="15" fill="#EDEDED"/>
<g clip-path="url(#clip0_2_576)">
<path d="M86 36H74C70.6863 36 68 38.6863 68 42V54C68 57.3137 70.6863 60 74 60H86C89.3137 60 92 57.3137 92 54V42C92 38.6863 89.3137 36 86 36Z" stroke="black" stroke-width="2" stroke-linecap="round" stroke-linejoin="round"/>
<path d="M74 60V66H86V60" stroke="black" stroke-width="2" stroke-linecap="round" stroke-linejoin="round"/>
<path d="M74 36V30H86V36" stroke="black" stroke-width="2" stroke-linecap="round" stroke-linejoin="round"/>
<line x1="76.7143" y1="42" x2="76.7143" y2="53" stroke="black" stroke-width="2" stroke-linecap="round"/>
<line x1="80.7143" y1="47" x2="80.7143" y2="53" stroke="black" stroke-width="2" stroke-linecap="round"/>
<line x1="84.7143" y1="45" x2="84.7143" y2="53" stroke="black" stroke-width="2" stroke-linecap="round"/>
</g>
<path d="M22.4909 98.128C21.6375 98.128 20.8215 98 20.0429 97.744C19.2642 97.4773 18.6509 97.136 18.2029 96.72L18.7949 95.472C19.2215 95.8453 19.7655 96.1547 20.4269 96.4C21.0882 96.6453 21.7762 96.768 22.4909 96.768C23.1415 96.768 23.6695 96.6933 24.0749 96.544C24.4802 96.3947 24.7789 96.192 24.9709 95.936C25.1629 95.6693 25.2589 95.3707 25.2589 95.04C25.2589 94.656 25.1309 94.3467 24.8749 94.112C24.6295 93.8773 24.3042 93.6907 23.8989 93.552C23.5042 93.4027 23.0669 93.2747 22.5869 93.168C22.1069 93.0613 21.6215 92.9387 21.1309 92.8C20.6509 92.6507 20.2082 92.464 19.8029 92.24C19.4082 92.016 19.0882 91.7173 18.8429 91.344C18.5975 90.96 18.4749 90.4693 18.4749 89.872C18.4749 89.296 18.6242 88.768 18.9229 88.288C19.2322 87.7973 19.7015 87.408 20.3309 87.12C20.9709 86.8213 21.7815 86.672 22.7629 86.672C23.4135 86.672 24.0589 86.7573 24.6989 86.928C25.3389 87.0987 25.8935 87.344 26.3629 87.664L25.8349 88.944C25.3549 88.624 24.8482 88.3947 24.3149 88.256C23.7815 88.1067 23.2642 88.032 22.7629 88.032C22.1335 88.032 21.6162 88.112 21.2109 88.272C20.8055 88.432 20.5069 88.6453 20.3149 88.912C20.1335 89.1787 20.0429 89.4773 20.0429 89.808C20.0429 90.2027 20.1655 90.5173 20.4109 90.752C20.6669 90.9867 20.9922 91.1733 21.3869 91.312C21.7922 91.4507 22.2349 91.5787 22.7149 91.696C23.1949 91.8027 23.6749 91.9253 24.1549 92.064C24.6455 92.2027 25.0882 92.384 25.4829 92.608C25.8882 92.832 26.2135 93.1307 26.4589 93.504C26.7042 93.8773 26.8269 94.3573 26.8269 94.944C26.8269 95.5093 26.6722 96.0373 26.3629 96.528C26.0535 97.008 25.5735 97.3973 24.9229 97.696C24.2829 97.984 23.4722 98.128 22.4909 98.128ZM39.5484 89.44C40.231 89.44 40.8337 89.5733 41.3564 89.84C41.879 90.1067 42.2844 90.512 42.5724 91.056C42.871 91.6 43.0204 92.288 43.0204 93.12V98H41.4844V93.296C41.4844 92.4747 41.2924 91.856 40.9084 91.44C40.5244 91.024 39.9857 90.816 39.2924 90.816C38.7804 90.816 38.3324 90.9227 37.9484 91.136C37.5644 91.3493 37.2657 91.664 37.0524 92.08C36.8497 92.496 36.7484 93.0133 36.7484 93.632V98H35.2124V93.296C35.2124 92.4747 35.0204 91.856 34.6364 91.44C34.263 91.024 33.7244 90.816 33.0204 90.816C32.519 90.816 32.0764 90.9227 31.6924 91.136C31.3084 91.3493 31.0097 91.664 30.7964 92.08C30.583 92.496 30.4764 93.0133 30.4764 93.632V98H28.9404V89.52H30.4124V91.776L30.1724 91.2C30.439 90.6453 30.8497 90.2133 31.4044 89.904C31.959 89.5947 32.6044 89.44 33.3404 89.44C34.151 89.44 34.8497 89.6427 35.4364 90.048C36.023 90.4427 36.407 91.0453 36.5884 91.856L35.9644 91.6C36.2204 90.9493 36.6684 90.4267 37.3084 90.032C37.9484 89.6373 38.695 89.44 39.5484 89.44ZM51.1106 98V96.208L51.0306 95.872V92.816C51.0306 92.1653 50.8386 91.664 50.4546 91.312C50.0813 90.9493 49.516 90.768 48.7586 90.768C48.2573 90.768 47.7666 90.8533 47.2866 91.024C46.8066 91.184 46.4013 91.4027 46.0706 91.68L45.4306 90.528C45.868 90.176 46.3906 89.9093 46.9986 89.728C47.6173 89.536 48.2626 89.44 48.9346 89.44C50.0973 89.44 50.9933 89.7227 51.6226 90.288C52.252 90.8533 52.5666 91.7173 52.5666 92.88V98H51.1106ZM48.3266 98.096C47.6973 98.096 47.1426 97.9893 46.6626 97.776C46.1933 97.5627 45.8306 97.2693 45.5746 96.896C45.3186 96.512 45.1906 96.08 45.1906 95.6C45.1906 95.1413 45.2973 94.7253 45.5106 94.352C45.7346 93.9787 46.092 93.68 46.5826 93.456C47.084 93.232 47.756 93.12 48.5986 93.12H51.2866V94.224H48.6626C47.8946 94.224 47.3773 94.352 47.1106 94.608C46.844 94.864 46.7106 95.1733 46.7106 95.536C46.7106 95.952 46.876 96.288 47.2066 96.544C47.5373 96.7893 47.996 96.912 48.5826 96.912C49.1586 96.912 49.66 96.784 50.0866 96.528C50.524 96.272 50.8386 95.8987 51.0306 95.408L51.3346 96.464C51.132 96.9653 50.7746 97.3653 50.2626 97.664C49.7506 97.952 49.1053 98.096 48.3266 98.096ZM55.4091 98V89.52H56.8811V91.824L56.7371 91.248C56.9718 90.6613 57.3665 90.2133 57.9211 89.904C58.4758 89.5947 59.1585 89.44 59.9691 89.44V90.928C59.9051 90.9173 59.8411 90.912 59.7771 90.912C59.7238 90.912 59.6705 90.912 59.6171 90.912C58.7958 90.912 58.1451 91.1573 57.6651 91.648C57.1851 92.1387 56.9451 92.848 56.9451 93.776V98H55.4091ZM65.118 98.096C64.2647 98.096 63.6033 97.8667 63.134 97.408C62.6647 96.9493 62.43 96.2933 62.43 95.44V87.664H63.966V95.376C63.966 95.8347 64.078 96.1867 64.302 96.432C64.5367 96.6773 64.8673 96.8 65.294 96.8C65.774 96.8 66.174 96.6667 66.494 96.4L66.974 97.504C66.7393 97.7067 66.4567 97.856 66.126 97.952C65.806 98.048 65.47 98.096 65.118 98.096ZM60.99 90.784V89.52H66.398V90.784H60.99ZM75.9279 98L72.1839 86.8H73.8319L77.2719 97.136H76.4399L80.0079 86.8H81.4799L84.9679 97.136H84.1679L87.6559 86.8H89.1759L85.4319 98H83.7519L80.4879 88.416H80.9199L77.6399 98H75.9279ZM95.5325 98V96.208L95.4525 95.872V92.816C95.4525 92.1653 95.2605 91.664 94.8765 91.312C94.5032 90.9493 93.9378 90.768 93.1805 90.768C92.6792 90.768 92.1885 90.8533 91.7085 91.024C91.2285 91.184 90.8232 91.4027 90.4925 91.68L89.8525 90.528C90.2898 90.176 90.8125 89.9093 91.4205 89.728C92.0392 89.536 92.6845 89.44 93.3565 89.44C94.5192 89.44 95.4152 89.7227 96.0445 90.288C96.6738 90.8533 96.9885 91.7173 96.9885 92.88V98H95.5325ZM92.7485 98.096C92.1192 98.096 91.5645 97.9893 91.0845 97.776C90.6152 97.5627 90.2525 97.2693 89.9965 96.896C89.7405 96.512 89.6125 96.08 89.6125 95.6C89.6125 95.1413 89.7192 94.7253 89.9325 94.352C90.1565 93.9787 90.5138 93.68 91.0045 93.456C91.5058 93.232 92.1778 93.12 93.0205 93.12H95.7085V94.224H93.0845C92.3165 94.224 91.7992 94.352 91.5325 94.608C91.2658 94.864 91.1325 95.1733 91.1325 95.536C91.1325 95.952 91.2978 96.288 91.6285 96.544C91.9592 96.7893 92.4178 96.912 93.0045 96.912C93.5805 96.912 94.0818 96.784 94.5085 96.528C94.9458 96.272 95.2605 95.8987 95.4525 95.408L95.7565 96.464C95.5538 96.9653 95.1965 97.3653 94.6845 97.664C94.1725 97.952 93.5272 98.096 92.7485 98.096ZM102.743 98.096C101.89 98.096 101.228 97.8667 100.759 97.408C100.29 96.9493 100.055 96.2933 100.055 95.44V87.664H101.591V95.376C101.591 95.8347 101.703 96.1867 101.927 96.432C102.162 96.6773 102.492 96.8 102.919 96.8C103.399 96.8 103.799 96.6667 104.119 96.4L104.599 97.504C104.364 97.7067 104.082 97.856 103.751 97.952C103.431 98.048 103.095 98.096 102.743 98.096ZM98.615 90.784V89.52H104.023V90.784H98.615ZM109.871 98.096C109.007 98.096 108.233 97.9093 107.551 97.536C106.879 97.1627 106.351 96.6507 105.967 96C105.583 95.3493 105.391 94.6027 105.391 93.76C105.391 92.9173 105.583 92.1707 105.967 91.52C106.351 90.8693 106.879 90.3627 107.551 90C108.233 89.6267 109.007 89.44 109.871 89.44C110.639 89.44 111.321 89.5947 111.919 89.904C112.527 90.2027 112.996 90.6507 113.327 91.248L112.159 92C111.881 91.584 111.54 91.28 111.135 91.088C110.74 90.8853 110.313 90.784 109.855 90.784C109.3 90.784 108.804 90.9067 108.367 91.152C107.929 91.3973 107.583 91.744 107.327 92.192C107.071 92.6293 106.943 93.152 106.943 93.76C106.943 94.368 107.071 94.896 107.327 95.344C107.583 95.792 107.929 96.1387 108.367 96.384C108.804 96.6293 109.3 96.752 109.855 96.752C110.313 96.752 110.74 96.656 111.135 96.464C111.54 96.2613 111.881 95.952 112.159 95.536L113.327 96.272C112.996 96.8587 112.527 97.312 111.919 97.632C111.321 97.9413 110.639 98.096 109.871 98.096ZM119.734 89.44C120.427 89.44 121.035 89.5733 121.558 89.84C122.091 90.1067 122.507 90.512 122.806 91.056C123.105 91.6 123.254 92.288 123.254 93.12V98H121.718V93.296C121.718 92.4747 121.515 91.856 121.11 91.44C120.715 91.024 120.155 90.816 119.43 90.816C118.886 90.816 118.411 90.9227 118.006 91.136C117.601 91.3493 117.286 91.664 117.062 92.08C116.849 92.496 116.742 93.0133 116.742 93.632V98H115.206V86.128H116.742V91.808L116.438 91.2C116.715 90.6453 117.142 90.2133 117.718 89.904C118.294 89.5947 118.966 89.44 119.734 89.44ZM129.873 98.096C128.966 98.096 128.166 97.9093 127.473 97.536C126.79 97.1627 126.257 96.6507 125.873 96C125.499 95.3493 125.313 94.6027 125.313 93.76C125.313 92.9173 125.494 92.1707 125.857 91.52C126.23 90.8693 126.737 90.3627 127.377 90C128.027 89.6267 128.758 89.44 129.569 89.44C130.39 89.44 131.115 89.6213 131.745 89.984C132.374 90.3467 132.865 90.8587 133.217 91.52C133.579 92.1707 133.761 92.9333 133.761 93.808C133.761 93.872 133.755 93.9467 133.745 94.032C133.745 94.1173 133.739 94.1973 133.729 94.272H126.513V93.168H132.929L132.305 93.552C132.315 93.008 132.203 92.5227 131.969 92.096C131.734 91.6693 131.409 91.3387 130.993 91.104C130.587 90.8587 130.113 90.736 129.569 90.736C129.035 90.736 128.561 90.8587 128.145 91.104C127.729 91.3387 127.403 91.6747 127.169 92.112C126.934 92.5387 126.817 93.0293 126.817 93.584V93.84C126.817 94.4053 126.945 94.912 127.201 95.36C127.467 95.7973 127.835 96.1387 128.305 96.384C128.774 96.6293 129.313 96.752 129.921 96.752C130.422 96.752 130.875 96.6667 131.281 96.496C131.697 96.3253 132.059 96.0693 132.369 95.728L133.217 96.72C132.833 97.168 132.353 97.5093 131.777 97.744C131.211 97.9787 130.577 98.096 129.873 98.096ZM138.326 98.096C137.622 98.096 136.95 98 136.31 97.808C135.68 97.616 135.184 97.3813 134.822 97.104L135.462 95.888C135.824 96.1333 136.272 96.3413 136.806 96.512C137.339 96.6827 137.883 96.768 138.438 96.768C139.152 96.768 139.664 96.6667 139.974 96.464C140.294 96.2613 140.454 95.9787 140.454 95.616C140.454 95.3493 140.358 95.1413 140.166 94.992C139.974 94.8427 139.718 94.7307 139.398 94.656C139.088 94.5813 138.742 94.5173 138.358 94.464C137.974 94.4 137.59 94.3253 137.206 94.24C136.822 94.144 136.47 94.016 136.15 93.856C135.83 93.6853 135.574 93.456 135.382 93.168C135.19 92.8693 135.094 92.4747 135.094 91.984C135.094 91.472 135.238 91.024 135.526 90.64C135.814 90.256 136.219 89.9627 136.742 89.76C137.275 89.5467 137.904 89.44 138.63 89.44C139.184 89.44 139.744 89.5093 140.31 89.648C140.886 89.776 141.355 89.9627 141.718 90.208L141.062 91.424C140.678 91.168 140.278 90.992 139.862 90.896C139.446 90.8 139.03 90.752 138.614 90.752C137.942 90.752 137.44 90.864 137.11 91.088C136.779 91.3013 136.614 91.5787 136.614 91.92C136.614 92.208 136.71 92.432 136.902 92.592C137.104 92.7413 137.36 92.8587 137.67 92.944C137.99 93.0293 138.342 93.104 138.726 93.168C139.11 93.2213 139.494 93.296 139.878 93.392C140.262 93.4773 140.608 93.6 140.918 93.76C141.238 93.92 141.494 94.144 141.686 94.432C141.888 94.72 141.99 95.104 141.99 95.584C141.99 96.096 141.84 96.5387 141.542 96.912C141.243 97.2853 140.822 97.5787 140.278 97.792C139.734 97.9947 139.083 98.096 138.326 98.096Z" fill="black"/>
<defs>
<clipPath id="clip0_2_576">
<rect width="48" height="48" fill="white" transform="translate(56 24)"/>
</clipPath>
</defs>
</svg>
